<?xml version="1.0" encoding="UTF-8" standalone="no"?>
<!-- Created with Inkscape (http://www.inkscape.org/) -->

<svg
   viewBox="0 0 91.777435 25.548861"
   version="1.1"
   id="svg1"
   xmlns="http://www.w3.org/2000/svg"
   xmlns:svg="http://www.w3.org/2000/svg">
  <defs
     id="defs1" />
  <g
     id="layer1"
     transform="translate(-31.659865,-183.40974)">
    <g
       id="text3"
       style="font-size:33.8667px;font-family:'DejaVu Serif';-inkscape-font-specification:'DejaVu Serif, Normal';fill:#0000ff;stroke-width:2.64583;stroke-linecap:round"
       aria-label="Funmi"
       transform="translate(1.8470149,-18.100746)">
      <path
         style="font-weight:900;font-family:Roboto;-inkscape-font-specification:'Roboto, Heavy';fill:#ff4c4c"
         d="m 44.976798,217.13745 h -9.359644 v 9.59116 H 29.812851 V 202.6515 h 16.106526 v 4.48139 H 35.617154 v 5.53971 h 9.359644 z"
         id="path34" />
      <path
         style="font-weight:900;font-family:Roboto;-inkscape-font-specification:'Roboto, Heavy';fill:#ff9f40"
         d="m 58.735145,224.79384 q -1.769403,2.2655 -4.779041,2.2655 -2.943493,0 -4.464848,-1.70326 -1.504819,-1.71979 -1.504819,-4.92787 v -11.59207 h 5.572791 v 11.62514 q 0,2.29857 2.232424,2.29857 1.918231,0 2.728519,-1.37252 v -12.55119 h 5.605864 v 17.89247 H 58.90051 Z"
         id="path35" />
      <path
         style="font-weight:900;font-family:Roboto;-inkscape-font-specification:'Roboto, Heavy';fill:#ffcd56"
         d="m 72.295054,208.83614 0.181902,2.10013 q 1.852085,-2.43086 5.10977,-2.43086 2.794664,0 4.167192,1.67019 1.389064,1.67018 1.438673,5.02708 v 11.52593 H 77.603263 V 215.4342 q 0,-1.356 -0.545704,-1.98438 -0.545704,-0.64492 -1.984377,-0.64492 -1.637111,0 -2.430862,1.28984 v 12.63387 h -5.572791 v -17.89247 z"
         id="path36" />
      <path
         style="font-weight:900;font-family:Roboto;-inkscape-font-specification:'Roboto, Heavy';fill:#4bc0c0"
         d="m 91.543511,208.83614 0.181901,2.10013 q 1.901695,-2.43086 5.109771,-2.43086 3.389977,0 4.580607,2.69545 1.81901,-2.69545 5.2586,-2.69545 5.4405,0 5.58932,6.58152 v 11.64168 h -5.58932 V 215.4342 q 0,-1.37253 -0.46303,-2.00092 -0.46302,-0.62838 -1.68672,-0.62838 -1.65364,0 -2.46393,1.47174 l 0.0165,0.23151 v 12.22046 h -5.589333 v -11.26134 q 0,-1.4056 -0.446485,-2.03399 -0.446485,-0.62838 -1.703257,-0.62838 -1.604038,0 -2.447398,1.47174 v 12.45197 h -5.572792 v -17.89247 z"
         id="path37" />
      <path
         style="font-weight:900;font-family:Roboto;-inkscape-font-specification:'Roboto, Heavy';fill:#36a2eb"
         d="m 121.3257,226.72861 h -5.58933 v -17.89247 h 5.58933 z m -5.92006,-22.50614 q 0,-1.19063 0.8599,-1.95131 0.8599,-0.76068 2.23243,-0.76068 1.37252,0 2.23242,0.76068 0.8599,0.76068 0.8599,1.95131 0,1.19062 -0.8599,1.9513 -0.8599,0.76068 -2.23242,0.76068 -1.37253,0 -2.23243,-0.76068 -0.8599,-0.76068 -0.8599,-1.9513 z"
         id="path38" />
    </g>
  </g>
</svg>
